<svg width="512" height="512" viewBox="0 0 512 512" fill="none" xmlns="http://www.w3.org/2000/svg">
<path d="M314.095 55.8751C333.012 71.6019 343.82 91.9452 347.737 116.058C347.966 118.63 348.025 121.105 348.015 123.684C348.013 124.492 348.01 125.301 348.008 126.134C348.005 126.75 348.002 127.366 347.999 128C348.561 127.991 349.123 127.982 349.702 127.973C355.608 127.884 361.514 127.824 367.42 127.78C369.618 127.76 371.815 127.733 374.013 127.698C397.395 127.337 397.395 127.337 406.999 132C407.816 132.378 408.633 132.756 409.475 133.146C421.843 139.139 430.759 150.202 436.175 162.601C438.259 168.667 439.346 174.708 439.961 181.076C440.04 181.849 440.119 182.621 440.201 183.417C440.463 185.982 440.716 188.548 440.97 191.115C441.157 192.963 441.344 194.812 441.532 196.661C442.04 201.666 442.54 206.673 443.038 211.679C443.562 216.927 444.091 222.174 444.62 227.422C445.506 236.234 446.388 245.046 447.267 253.858C448.282 264.035 449.305 274.211 450.331 284.386C451.32 294.189 452.304 303.992 453.285 313.795C453.702 317.96 454.121 322.126 454.541 326.291C455.036 331.2 455.527 336.109 456.014 341.018C456.193 342.816 456.373 344.613 456.556 346.411C456.805 348.872 457.049 351.334 457.291 353.796C457.364 354.5 457.436 355.204 457.511 355.929C460.394 385.729 450.635 413.974 431.999 437C431.464 437.677 430.929 438.353 430.378 439.051C413.12 460.143 385.769 472.83 359.095 475.816C351.808 476.455 344.46 476.285 337.152 476.274C335.189 476.279 333.226 476.284 331.263 476.29C325.97 476.303 320.676 476.304 315.382 476.301C310.945 476.3 306.507 476.305 302.069 476.31C291.589 476.321 281.108 476.322 270.628 476.315C259.859 476.309 249.09 476.322 238.321 476.343C229.037 476.361 219.752 476.367 210.468 476.363C204.94 476.362 199.412 476.364 193.884 476.378C188.68 476.391 183.476 476.389 178.272 476.376C176.376 476.373 174.481 476.376 172.586 476.384C143.56 476.503 116.685 469.921 93.9988 451C93.0642 450.229 92.1297 449.458 91.1668 448.664C69.7137 430.121 56.3463 402.38 54.1106 374.216C53.9317 370.67 54.1174 367.173 54.3484 363.633C54.3957 362.856 54.4429 362.079 54.4916 361.278C55.0385 352.708 55.862 344.167 56.7171 335.623C56.89 333.867 57.0626 332.11 57.2349 330.354C57.6982 325.643 58.1664 320.933 58.6361 316.223C58.9303 313.271 59.2234 310.319 59.5161 307.367C60.5399 297.043 61.568 286.72 62.5999 276.397C63.5581 266.81 64.5066 257.222 65.4507 247.634C66.2657 239.363 67.0875 231.093 67.9146 222.823C68.4068 217.9 68.8963 212.977 69.3787 208.054C69.832 203.428 70.2941 198.804 70.7626 194.18C70.9321 192.492 71.0987 190.804 71.2619 189.116C73.2293 168.806 77.3497 153.349 92.9676 139.219C103.336 130.89 114.931 127.669 127.964 127.804C128.997 127.807 130.03 127.81 131.095 127.813C134.375 127.824 137.656 127.849 140.936 127.875C143.169 127.885 145.401 127.894 147.634 127.902C153.089 127.924 158.544 127.958 163.999 128C163.988 127.107 163.988 127.107 163.977 126.196C163.798 101.274 174.319 79.5681 191.214 61.6287C224.854 29.8753 277.782 26.9674 314.095 55.8751ZM215.1 91.3553C206.176 102.586 201.999 113.628 201.999 128C237.639 128 273.279 128 309.999 128C309.999 113.044 305.156 100.343 294.936 89.2498C283.265 78.3141 269.566 73.4635 253.767 73.5796C238.97 74.0648 225.231 80.5426 215.1 91.3553ZM112.999 173C110.585 177.881 109.445 182.23 108.955 187.664C108.879 188.404 108.803 189.144 108.724 189.906C108.474 192.368 108.24 194.832 108.006 197.295C107.829 199.068 107.651 200.841 107.473 202.614C106.991 207.419 106.524 212.226 106.06 217.033C105.571 222.075 105.07 227.116 104.571 232.157C103.733 240.628 102.905 249.1 102.082 257.573C101.133 267.343 100.172 277.113 99.2036 286.881C98.27 296.301 97.3438 305.721 96.4213 315.142C96.0298 319.139 95.6361 323.137 95.2406 327.134C94.7742 331.853 94.3143 336.572 93.8592 341.292C93.692 343.016 93.5228 344.739 93.3512 346.462C90.9981 370.129 91.727 390.773 106.936 410.375C108.271 411.933 109.624 413.476 110.999 415C111.602 415.696 112.205 416.392 112.827 417.109C123.3 428.462 139.653 436.839 155.155 438.187C157.36 438.26 159.557 438.276 161.763 438.267C162.597 438.272 163.431 438.276 164.291 438.281C167.061 438.294 169.831 438.292 172.601 438.29C174.598 438.296 176.594 438.303 178.591 438.311C183.998 438.328 189.405 438.333 194.813 438.334C198.197 438.336 201.582 438.34 204.966 438.345C216.79 438.364 228.615 438.372 240.439 438.37C251.432 438.369 262.425 438.39 273.419 438.422C282.88 438.448 292.341 438.459 301.802 438.458C307.442 438.457 313.082 438.463 318.723 438.484C324.033 438.503 329.344 438.503 334.655 438.489C336.593 438.487 338.531 438.491 340.47 438.504C362.13 438.631 380.457 433.869 396.999 419C397.61 418.482 398.221 417.963 398.85 417.43C410.814 406.558 418.326 389.878 419.999 374C420.416 363.643 419.533 353.46 418.454 343.179C418.288 341.541 418.122 339.904 417.957 338.266C417.51 333.86 417.055 329.456 416.599 325.051C416.12 320.418 415.65 315.785 415.179 311.151C414.286 302.382 413.386 293.614 412.484 284.846C411.161 271.995 409.85 259.143 408.538 246.291C408.343 244.387 408.149 242.482 407.954 240.577C407.812 239.181 407.812 239.181 407.666 237.757C407.105 232.259 406.542 226.761 405.976 221.264C405.624 217.835 405.272 214.406 404.921 210.976C404.759 209.398 404.596 207.819 404.433 206.241C404.209 204.07 403.987 201.898 403.764 199.727C403.661 198.722 403.661 198.722 403.555 197.696C403.041 192.629 402.647 187.559 402.323 182.476C401.604 176.986 399.168 172.776 395.061 169.125C388.837 164.806 383.838 164.711 376.453 164.739C374.842 164.733 374.842 164.733 373.199 164.728C369.594 164.717 365.989 164.721 362.384 164.725C359.802 164.721 357.22 164.716 354.638 164.71C348.348 164.697 342.059 164.695 335.77 164.697C330.658 164.699 325.546 164.697 320.434 164.693C319.707 164.693 318.979 164.692 318.23 164.691C316.752 164.69 315.274 164.689 313.796 164.688C299.936 164.677 286.076 164.679 272.215 164.685C259.536 164.69 246.856 164.679 234.176 164.66C221.156 164.641 208.136 164.632 195.116 164.636C187.806 164.638 180.496 164.636 173.187 164.621C166.314 164.608 159.442 164.611 152.57 164.624C150.045 164.626 147.521 164.624 144.996 164.615C141.555 164.605 138.113 164.613 134.671 164.626C133.669 164.618 132.666 164.611 131.634 164.603C123.511 164.667 118.365 166.619 112.999 173Z" fill="#ffffff"/>
<path d="M191.684 202.129C196.447 205.125 198.896 207.681 201 213C201.639 216.168 202.003 219.354 202.375 222.563C204.767 240.276 211.58 253.007 226 264C239.626 272.196 253.495 275.004 268.938 271.375C284.295 267.462 294.485 259.221 303 246C307.387 237.767 308.852 229.236 309.837 220.066C310.594 213.67 312.118 208.98 316.719 204.223C322.576 200.408 328.141 199.981 335 201C339.896 202.647 343.178 205.715 346 210C351.297 221.223 347.627 237.644 343.676 249.031C339.019 261.472 332.839 272.065 324 282C323.323 282.772 322.646 283.544 321.949 284.34C306.898 300.468 284.871 310.372 262.945 311.312C235.806 312.027 212.605 305.336 192.371 286.332C191.589 285.562 190.806 284.793 190 284C189.228 283.241 188.456 282.481 187.66 281.699C172.307 265.664 164.289 243.474 163.562 221.5C163.734 214.936 164.898 210.224 169.496 205.445C175.588 200.067 184.163 198.965 191.684 202.129Z" fill="#ffffff"/>
</svg>
