<svg width="512" height="512" viewBox="0 0 512 512" fill="none" xmlns="http://www.w3.org/2000/svg">
<path d="M314.095 55.8751C333.011 71.6019 343.82 91.9452 347.737 116.058C347.966 118.63 348.025 121.105 348.015 123.684C348.013 124.492 348.01 125.301 348.008 126.134C348.005 126.75 348.002 127.366 347.999 128C348.561 127.991 349.123 127.982 349.702 127.973C355.608 127.884 361.514 127.824 367.42 127.78C369.618 127.76 371.815 127.733 374.013 127.698C397.394 127.337 397.394 127.337 406.999 132C407.816 132.378 408.633 132.756 409.475 133.146C421.843 139.139 430.759 150.202 436.174 162.601C438.259 168.667 439.346 174.708 439.96 181.076C440.04 181.849 440.119 182.621 440.201 183.417C440.463 185.982 440.716 188.548 440.97 191.115C441.157 192.963 441.344 194.812 441.532 196.661C442.04 201.666 442.54 206.673 443.038 211.679C443.562 216.927 444.091 222.174 444.62 227.422C445.506 236.234 446.388 245.046 447.267 253.858C448.282 264.035 449.305 274.211 450.331 284.386C451.32 294.189 452.304 303.992 453.285 313.795C453.702 317.96 454.121 322.126 454.541 326.291C455.036 331.2 455.526 336.109 456.014 341.018C456.193 342.816 456.373 344.613 456.555 346.411C456.805 348.872 457.048 351.334 457.291 353.796C457.363 354.5 457.436 355.204 457.511 355.929C460.233 384.062 451.764 412.879 433.815 434.742C413.456 458.644 387.503 473.1 355.999 476C349.421 476.355 342.829 476.284 336.244 476.274C334.291 476.279 332.337 476.284 330.384 476.29C325.118 476.303 319.851 476.304 314.584 476.301C310.169 476.3 305.753 476.305 301.338 476.31C290.91 476.321 280.482 476.322 270.055 476.315C259.34 476.309 248.626 476.322 237.912 476.343C228.674 476.361 219.436 476.367 210.198 476.363C204.698 476.362 199.198 476.364 193.698 476.378C188.52 476.391 183.343 476.389 178.165 476.376C176.28 476.373 174.394 476.376 172.508 476.384C143.514 476.503 116.657 469.897 93.9986 451C93.0641 450.229 92.1295 449.458 91.1666 448.664C69.7134 430.121 56.3461 402.38 54.1104 374.216C53.9316 370.671 54.1179 367.176 54.3493 363.637C54.3966 362.861 54.4438 362.084 54.4925 361.283C55.0407 352.687 55.8557 344.119 56.701 335.547C56.8723 333.783 57.0433 332.018 57.214 330.253C57.6731 325.52 58.1372 320.787 58.603 316.054C58.895 313.087 59.1861 310.12 59.477 307.153C60.3906 297.841 61.3075 288.528 62.229 279.216C63.2874 268.519 64.3344 257.821 65.3717 247.122C66.1785 238.809 66.9955 230.497 67.8204 222.186C68.311 217.239 68.7974 212.293 69.2728 207.345C69.7198 202.695 70.1797 198.047 70.6493 193.4C70.8184 191.704 70.983 190.008 71.1425 188.312C72.9998 168.628 77.7538 152.626 93.0768 139.176C103.625 130.932 114.948 127.496 128.256 127.707C129.286 127.711 130.315 127.715 131.375 127.72C134.625 127.736 137.874 127.774 141.124 127.812C143.342 127.827 145.561 127.841 147.78 127.853C153.186 127.886 158.592 127.936 163.999 128C163.988 127.107 163.988 127.107 163.977 126.196C163.798 101.274 174.319 79.5681 191.213 61.6287C224.854 29.8753 277.782 26.9674 314.095 55.8751ZM215.1 91.3553C206.176 102.586 201.999 113.628 201.999 128C237.639 128 273.279 128 309.999 128C309.999 113.044 305.155 100.343 294.936 89.2498C283.265 78.3141 269.565 73.4635 253.767 73.5796C238.97 74.0648 225.231 80.5426 215.1 91.3553ZM168.686 208.437C162.729 217.483 164.611 227.861 166.588 237.998C169.925 253.614 177.374 268.115 187.999 280C188.726 280.821 189.453 281.642 190.202 282.488C205.644 298.927 227.272 309.214 249.819 310.383C276.752 311.174 299.958 303.152 319.784 284.731C336.447 268.564 346.719 245.285 347.311 222.062C347.239 215.694 345.953 211.086 341.503 206.437C336.768 202.281 332.725 201.58 326.635 201.66C322.333 202.214 319.065 203.953 315.999 207C312.187 212.49 311.262 217.122 310.561 223.687C308.541 239.299 302.348 252.826 289.999 263C277.17 271.841 263.184 275.685 247.667 273.539C232.12 270.625 219.497 263.232 210.307 250.164C205.201 241.72 202.46 233.195 201.358 223.45C200.26 213.354 200.26 213.354 194.311 205.48C189.842 202.21 185.898 201.274 180.393 201.578C175.403 202.457 172.182 204.753 168.686 208.437Z" fill="black"/>
</svg>
