<svg width="32" height="32" viewBox="0 0 32 32" fill="none" xmlns="http://www.w3.org/2000/svg">
<style>
  .atlase-mark { fill: #000000; }
  @media (prefers-color-scheme: dark) { .atlase-mark { fill: #ffffff; } }
</style>
<path class="atlase-mark" d="M19.6285 3.49234C20.8108 4.47527 21.4863 5.74673 21.7311 7.2538C21.7454 7.41453 21.7491 7.56922 21.7485 7.73038C21.7483 7.78093 21.7482 7.83148 21.748 7.88356C21.7479 7.92203 21.7477 7.9605 21.7475 8.00014C21.7826 7.99959 21.8177 7.99903 21.8539 7.99846C22.2231 7.99288 22.5922 7.98914 22.9613 7.98641C23.0987 7.98516 23.236 7.98346 23.3734 7.98128C24.8347 7.95871 24.8347 7.95871 25.435 8.25014C25.486 8.27378 25.5371 8.29742 25.5897 8.32178C26.3628 8.69635 26.92 9.38779 27.2585 10.1627C27.3887 10.5418 27.4567 10.9194 27.4951 11.3174C27.5 11.3657 27.505 11.414 27.5101 11.4637C27.5265 11.624 27.5423 11.7844 27.5582 11.9448C27.5699 12.0604 27.5816 12.1759 27.5933 12.2914C27.625 12.6043 27.6563 12.9172 27.6874 13.2301C27.7202 13.5581 27.7532 13.886 27.7863 14.214C27.8417 14.7647 27.8968 15.3155 27.9518 15.8663C28.0152 16.5023 28.0791 17.1383 28.1433 17.7743C28.2051 18.3869 28.2665 18.9996 28.3279 19.6123C28.3539 19.8727 28.3801 20.133 28.4064 20.3933C28.4373 20.7001 28.468 21.0069 28.4984 21.3138C28.5096 21.4261 28.5209 21.5385 28.5323 21.6508C28.5479 21.8047 28.5631 21.9585 28.5782 22.1124C28.5828 22.1564 28.5873 22.2004 28.592 22.2457C28.7621 24.004 28.2328 25.8051 27.111 27.1715C25.8385 28.6654 24.2165 29.5689 22.2475 29.7501C21.8364 29.7723 21.4244 29.7679 21.0128 29.7673C20.8907 29.7676 20.7687 29.7679 20.6466 29.7683C20.3174 29.7691 19.9882 29.7691 19.6591 29.769C19.3831 29.7689 19.1071 29.7692 18.8312 29.7695C18.1794 29.7702 17.5277 29.7702 16.876 29.7699C16.2063 29.7695 15.5367 29.7703 14.8671 29.7716C14.2897 29.7727 13.7123 29.7731 13.135 29.7729C12.7912 29.7728 12.4475 29.7729 12.1037 29.7738C11.7801 29.7746 11.4565 29.7744 11.1329 29.7736C11.015 29.7735 10.8972 29.7737 10.7793 29.7742C8.96717 29.7816 7.28859 29.3687 5.87247 28.1876C5.81406 28.1395 5.75565 28.0913 5.69547 28.0416C4.35465 26.8827 3.51919 25.1489 3.37946 23.3887C3.36829 23.1671 3.37993 22.9487 3.39439 22.7275C3.39734 22.6789 3.4003 22.6304 3.40334 22.5803C3.4376 22.0431 3.48854 21.5076 3.54137 20.9719C3.55208 20.8616 3.56276 20.7513 3.57343 20.641C3.60213 20.3451 3.63113 20.0493 3.66025 19.7535C3.67849 19.5681 3.69669 19.3827 3.71487 19.1972C3.77197 18.6152 3.82928 18.0332 3.88687 17.4512C3.95302 16.7826 4.01846 16.114 4.08329 15.4453C4.13371 14.9257 4.18478 14.4062 4.23633 13.8868C4.267 13.5776 4.29739 13.2684 4.32711 12.9592C4.35504 12.6686 4.38379 12.3781 4.41314 12.0876C4.42371 11.9817 4.434 11.8757 4.44397 11.7697C4.56005 10.5394 4.85717 9.5393 5.81486 8.69863C6.47414 8.1834 7.18181 7.96864 8.01359 7.98183C8.0779 7.9821 8.14222 7.98236 8.20849 7.98263C8.4116 7.98367 8.61468 7.98603 8.81779 7.98842C8.95646 7.98936 9.09513 7.99022 9.2338 7.99099C9.57171 7.99304 9.90959 7.99617 10.2475 8.00014C10.2468 7.94434 10.2468 7.94434 10.2461 7.8874C10.2349 6.32979 10.8925 4.97316 11.9484 3.85195C14.0509 1.86736 17.3589 1.68562 19.6285 3.49234ZM13.4413 5.70986C12.8835 6.41176 12.6225 7.1019 12.6225 8.00014C14.85 8.00014 17.0775 8.00014 19.3725 8.00014C19.3725 7.06539 19.0698 6.27158 18.4311 5.57827C17.7016 4.89478 16.8454 4.59162 15.858 4.59888C14.9332 4.6292 14.0745 5.03407 13.4413 5.70986ZM10.5404 13.0275C10.1681 13.5929 10.2857 14.2415 10.4093 14.875C10.6179 15.851 11.0834 16.7573 11.7475 17.5001C11.7929 17.5515 11.8384 17.6028 11.8852 17.6557C12.8503 18.6831 14.202 19.326 15.6112 19.3991C17.2945 19.4485 18.7449 18.9471 19.9841 17.7959C21.0255 16.7854 21.6675 15.3304 21.7045 13.879C21.7 13.481 21.6196 13.193 21.3415 12.9025C21.0455 12.6427 20.7928 12.5989 20.4123 12.6039C20.1434 12.6386 19.9391 12.7472 19.7475 12.9376C19.5093 13.2808 19.4514 13.5703 19.4076 13.9806C19.2814 14.9563 18.8943 15.8018 18.1225 16.4376C17.3207 16.9902 16.4465 17.2305 15.4767 17.0963C14.5051 16.9142 13.7161 16.4521 13.1418 15.6354C12.8226 15.1076 12.6513 14.5749 12.5824 13.9657C12.5138 13.3348 12.5138 13.3348 12.142 12.8427C11.8627 12.6383 11.6162 12.5797 11.2721 12.5988C10.9602 12.6537 10.7589 12.7972 10.5404 13.0275Z"/>
<circle cx="16" cy="14.125" r="1.5625" fill="#FFA000"/>
</svg>
